<svg width="14" height="13" viewBox="0 0 14 13" fill="none" xmlns="http://www.w3.org/2000/svg">
<path d="M10.6005 4.16766C10.3446 4.02522 10.0157 4.02522 9.72324 4.16766L7.67624 5.34273L6.28721 6.0905L4.27676 7.26558C4.02089 7.40801 3.69191 7.40801 3.39948 7.26558L1.82768 6.33976C1.5718 6.19733 1.38903 5.91246 1.38903 5.59199V3.81157C1.38903 3.52671 1.53525 3.24184 1.82768 3.0638L3.39948 2.17359C3.65535 2.03116 3.98433 2.03116 4.27676 2.17359L5.84856 3.09941C6.10444 3.24184 6.28721 3.52671 6.28721 3.84718V5.02226L7.67624 4.23887V3.02819C7.67624 2.74332 7.53003 2.45846 7.2376 2.28042L4.31332 0.606825C4.05744 0.464392 3.72846 0.464392 3.43603 0.606825L0.438642 2.31602C0.146214 2.45846 0 2.74332 0 3.02819V6.37537C0 6.66024 0.146214 6.9451 0.438642 7.12315L3.39948 8.79674C3.65535 8.93917 3.98433 8.93917 4.27676 8.79674L6.28721 7.65727L7.67624 6.87389L9.68668 5.73442C9.94256 5.59199 10.2715 5.59199 10.564 5.73442L12.1358 6.62463C12.3916 6.76706 12.5744 7.05193 12.5744 7.3724V9.15282C12.5744 9.43769 12.4282 9.72255 12.1358 9.90059L10.6005 10.7908C10.3446 10.9332 10.0157 10.9332 9.72324 10.7908L8.15144 9.90059C7.89556 9.75816 7.71279 9.47329 7.71279 9.15282V8.01335L6.32376 8.79674V9.97181C6.32376 10.2567 6.46997 10.5415 6.7624 10.7196L9.72324 12.3932C9.97911 12.5356 10.3081 12.5356 10.6005 12.3932L13.5614 10.7196C13.8172 10.5772 14 10.2923 14 9.97181V6.58902C14 6.30415 13.8538 6.01929 13.5614 5.84125L10.6005 4.16766Z" fill="#8247E5"/>
</svg>
