<svg width="40" height="41" viewBox="0 0 40 41" fill="none" xmlns="http://www.w3.org/2000/svg">
<circle cx="20" cy="20.5" r="20" fill="#EBEBEB"/>
<g filter="url(#filter0_d_1_2374)">
<mask id="mask0_1_2374" style="mask-type:alpha" maskUnits="userSpaceOnUse" x="3" y="4" width="34" height="33">
<circle cx="20" cy="20.5" r="16.25" fill="#F2F2F2"/>
</mask>
<g mask="url(#mask0_1_2374)">
<path d="M23.3752 33.0567C23.3752 41.5234 16.5117 48.3869 8.04503 48.3869C-0.421598 48.3869 -7.28516 41.5234 -7.28516 33.0567C-7.28516 24.5901 -0.421598 17.7266 8.04503 17.7266C16.5117 17.7266 23.3752 24.5901 23.3752 33.0567Z" fill="#232323"/>
<path d="M40.6994 10.2052C40.6994 18.6718 33.8359 25.5354 25.3692 25.5354C16.9026 25.5354 10.0391 18.6718 10.0391 10.2052C10.0391 1.73856 16.9026 -5.125 25.3692 -5.125C33.8359 -5.125 40.6994 1.73856 40.6994 10.2052Z" fill="#232323"/>
<path d="M28.6321 17.5309C28.6321 28.1988 19.984 36.8469 9.31604 36.8469C-1.35192 36.8469 -10 28.1988 -10 17.5309C-10 6.86293 -1.35192 -1.78516 9.31604 -1.78516C19.984 -1.78516 28.6321 6.86293 28.6321 17.5309Z" fill="#FFD600"/>
<path d="M11.665 19.2598L39.61 0.377178L56.7759 25.7816L28.831 44.6642L11.665 19.2598Z" fill="#232323"/>
<path d="M31.7061 21.4922C31.7061 25.082 28.7959 27.9922 25.2061 27.9922C21.6162 27.9922 18.7061 25.082 18.7061 21.4922C18.7061 17.9023 21.6162 14.9922 25.2061 14.9922C28.7959 14.9922 31.7061 17.9023 31.7061 21.4922Z" fill="white"/>
</g>
</g>
<defs>
<filter id="filter0_d_1_2374" x="0.75" y="1.25" width="38.5" height="38.5" filterUnits="userSpaceOnUse" color-interpolation-filters="sRGB">
<feFlood flood-opacity="0" result="BackgroundImageFix"/>
<feColorMatrix in="SourceAlpha" type="matrix" values="0 0 0 0 0 0 0 0 0 0 0 0 0 0 0 0 0 0 127 0" result="hardAlpha"/>
<feOffset/>
<feGaussianBlur stdDeviation="1.5"/>
<feColorMatrix type="matrix" values="0 0 0 0 0 0 0 0 0 0 0 0 0 0 0 0 0 0 0.2 0"/>
<feBlend mode="normal" in2="BackgroundImageFix" result="effect1_dropShadow_1_2374"/>
<feBlend mode="normal" in="SourceGraphic" in2="effect1_dropShadow_1_2374" result="shape"/>
</filter>
</defs>
</svg>
