<svg width="18" height="17" viewBox="0 0 18 17" fill="none" xmlns="http://www.w3.org/2000/svg">
<path fill-rule="evenodd" clip-rule="evenodd" d="M1.99805 8C1.99805 4.41015 4.9082 1.5 8.49805 1.5C12.0879 1.5 14.998 4.41015 14.998 8C14.998 9.78552 14.2799 11.4007 13.1136 12.5767L13.1665 12.6292L13.1136 12.5767C12.6774 13.0166 12.1792 13.3943 11.6337 13.6954C10.7052 14.2079 9.63773 14.5 8.49805 14.5C4.9082 14.5 1.99805 11.5899 1.99805 8ZM14.145 12.9359C15.2991 11.6167 15.998 9.89025 15.998 8C15.998 3.85787 12.6402 0.5 8.49805 0.5C4.35592 0.5 0.998047 3.85787 0.998047 8C0.998047 12.1421 4.35592 15.5 8.49805 15.5C9.81095 15.5 11.0442 15.163 12.1169 14.5709L11.8753 14.1331L12.1169 14.5709C12.591 14.3092 13.0337 13.9976 13.4382 13.6433L16.1484 16.3536C16.3437 16.5488 16.6602 16.5488 16.8555 16.3536C17.0508 16.1583 17.0508 15.8417 16.8555 15.6464L14.145 12.9359Z" fill="#232323"/>
</svg>
