<svg width="48" height="42" viewBox="0 0 48 42" fill="none" xmlns="http://www.w3.org/2000/svg">
<g filter="url(#filter0_d_1_777)">
<mask id="mask0_1_777" style="mask-type:alpha" maskUnits="userSpaceOnUse" x="17" y="18" width="13" height="13">
<path fill-rule="evenodd" clip-rule="evenodd" d="M21.0979 18.5528C20.8803 18.4273 20.6122 18.4274 20.3947 18.553L17.9316 19.9754C17.65 20.138 17.4766 20.4384 17.4766 20.7635V26.5795C17.4766 26.9047 17.65 27.2051 17.9316 27.3677L22.9689 30.2766C23.2495 30.4386 23.5952 30.4392 23.8765 30.2781L28.9257 27.3847C29.2095 27.2221 29.3841 26.9198 29.3834 26.5928L29.3692 20.7775C29.3684 20.4539 29.1958 20.155 28.9158 19.9926L26.4642 18.5699C26.2472 18.444 25.9795 18.4432 25.7617 18.5678C25.2913 18.837 25.2893 19.5147 25.7581 19.7867L27.511 20.8039C27.7909 20.9663 27.9635 21.2652 27.9643 21.5889L27.9745 25.7786C27.9753 26.1056 27.8006 26.4079 27.5169 26.5705L23.8792 28.655C23.598 28.8162 23.2522 28.8156 22.9716 28.6535L19.3384 26.5555C19.0569 26.3929 18.8834 26.0925 18.8834 25.7674V21.5757C18.8834 21.2506 19.0569 20.9501 19.3384 20.7876L21.0982 19.7713C21.5673 19.5005 21.5671 18.8234 21.0979 18.5528Z" fill="#232323"/>
<path d="M21.0982 19.7713L21.0898 19.7568L21.0982 19.7713ZM19.3384 20.7876L19.33 20.7731L19.3384 20.7876ZM19.3384 26.5555L19.33 26.57L19.3384 26.5555ZM23.8792 28.655L23.8875 28.6696L23.8792 28.655ZM27.9745 25.7786L27.9912 25.7786L27.9745 25.7786ZM27.5169 26.5705L27.5252 26.585L27.5169 26.5705ZM27.511 20.8039L27.5026 20.8184L27.511 20.8039ZM27.9643 21.5889L27.9475 21.5889L27.9643 21.5889ZM26.4642 18.5699L26.4558 18.5844L26.4642 18.5699ZM25.7617 18.5678L25.7701 18.5823L25.7617 18.5678ZM29.3692 20.7775L29.3859 20.7775L29.3692 20.7775ZM28.9158 19.9926L28.9074 20.007L28.9158 19.9926ZM28.9257 27.3847L28.9174 27.3701L28.9257 27.3847ZM29.3834 26.5928L29.3666 26.5928L29.3834 26.5928ZM22.9689 30.2766L22.9772 30.262L22.9689 30.2766ZM23.8765 30.2781L23.8681 30.2635L23.8765 30.2781ZM20.3947 18.553L20.3863 18.5385L20.3947 18.553ZM17.9399 19.9899L20.4031 18.5675L20.3863 18.5385L17.9232 19.9609L17.9399 19.9899ZM17.4933 26.5795V20.7635H17.4598V26.5795H17.4933ZM22.9772 30.262L17.9399 27.3532L17.9232 27.3822L22.9605 30.2911L22.9772 30.262ZM28.9174 27.3701L23.8681 30.2635L23.8848 30.2926L28.9341 27.3992L28.9174 27.3701ZM29.3524 20.7776L29.3666 26.5928L29.4001 26.5928L29.3859 20.7775L29.3524 20.7776ZM26.4558 18.5844L28.9074 20.007L28.9242 19.9781L26.4726 18.5554L26.4558 18.5844ZM25.7497 19.8012L27.5026 20.8184L27.5194 20.7894L25.7665 19.7722L25.7497 19.8012ZM27.9475 21.5889L27.9578 25.7787L27.9912 25.7786L27.981 21.5888L27.9475 21.5889ZM27.5086 26.556L23.8708 28.6405L23.8875 28.6696L27.5252 26.585L27.5086 26.556ZM22.9799 28.639L19.3468 26.541L19.33 26.57L22.9632 28.668L22.9799 28.639ZM18.9002 25.7674V21.5757H18.8667V25.7674H18.9002ZM19.3468 20.8021L21.1066 19.7858L21.0898 19.7568L19.33 20.7731L19.3468 20.8021ZM21.1066 19.7858C21.5868 19.5085 21.5866 18.8153 21.1062 18.5383L21.0895 18.5673C21.5475 18.8315 21.5477 19.4924 21.0898 19.7568L21.1066 19.7858ZM18.9002 21.5757C18.9002 21.2566 19.0704 20.9617 19.3468 20.8021L19.33 20.7731C19.0433 20.9386 18.8667 21.2446 18.8667 21.5757H18.9002ZM19.3468 26.541C19.0704 26.3814 18.9002 26.0865 18.9002 25.7674H18.8667C18.8667 26.0985 19.0433 26.4044 19.33 26.57L19.3468 26.541ZM23.8708 28.6405C23.5948 28.7987 23.2555 28.7981 22.9799 28.639L22.9632 28.668C23.249 28.8331 23.6011 28.8337 23.8875 28.6696L23.8708 28.6405ZM27.9578 25.7787C27.9585 26.0997 27.7871 26.3964 27.5086 26.556L27.5252 26.585C27.8142 26.4195 27.9921 26.1116 27.9912 25.7786L27.9578 25.7787ZM27.5026 20.8184C27.7773 20.9778 27.9468 21.2712 27.9475 21.5889L27.981 21.5888C27.9802 21.2592 27.8044 20.9548 27.5194 20.7894L27.5026 20.8184ZM25.7534 18.5533C25.2718 18.8289 25.2697 19.5227 25.7497 19.8012L25.7665 19.7722C25.3088 19.5067 25.3108 18.8451 25.7701 18.5823L25.7534 18.5533ZM26.4726 18.5554C26.2504 18.4265 25.9764 18.4257 25.7534 18.5533L25.7701 18.5823C25.9826 18.4607 26.2439 18.4615 26.4558 18.5844L26.4726 18.5554ZM29.3859 20.7775C29.3851 20.4479 29.2093 20.1435 28.9242 19.9781L28.9074 20.007C29.1822 20.1665 29.3516 20.4599 29.3524 20.7776L29.3859 20.7775ZM28.9341 27.3992C29.223 27.2336 29.4009 26.9258 29.4001 26.5928L29.3666 26.5928C29.3674 26.9138 29.1959 27.2105 28.9174 27.3701L28.9341 27.3992ZM22.9605 30.2911C23.2463 30.4561 23.5984 30.4567 23.8848 30.2926L23.8681 30.2635C23.5921 30.4217 23.2527 30.4212 22.9772 30.262L22.9605 30.2911ZM17.4598 26.5795C17.4598 26.9107 17.6364 27.2166 17.9232 27.3822L17.9399 27.3532C17.6636 27.1936 17.4933 26.8987 17.4933 26.5795H17.4598ZM20.4031 18.5675C20.6154 18.4449 20.8771 18.4448 21.0895 18.5673L21.1062 18.5383C20.8834 18.4098 20.609 18.4099 20.3863 18.5385L20.4031 18.5675ZM17.9232 19.9609C17.6364 20.1265 17.4598 20.4324 17.4598 20.7635H17.4933C17.4933 20.4444 17.6636 20.1495 17.9399 19.9899L17.9232 19.9609Z" fill="white"/>
</mask>
<g mask="url(#mask0_1_777)">
<path fill-rule="evenodd" clip-rule="evenodd" d="M21.0979 18.5528C20.8803 18.4273 20.6122 18.4274 20.3947 18.553L17.9316 19.9754C17.65 20.138 17.4766 20.4384 17.4766 20.7635V26.5795C17.4766 26.9047 17.65 27.2051 17.9316 27.3677L22.9689 30.2766C23.2495 30.4386 23.5952 30.4392 23.8765 30.2781L28.9257 27.3847C29.2095 27.2221 29.3841 26.9198 29.3834 26.5928L29.3692 20.7775C29.3684 20.4539 29.1958 20.155 28.9158 19.9926L26.4642 18.5699C26.2472 18.444 25.9795 18.4432 25.7617 18.5678C25.2913 18.837 25.2893 19.5147 25.7581 19.7867L27.511 20.8039C27.7909 20.9663 27.9635 21.2652 27.9643 21.5889L27.9745 25.7786C27.9753 26.1056 27.8006 26.4079 27.5169 26.5705L23.8792 28.655C23.598 28.8162 23.2522 28.8156 22.9716 28.6535L19.3384 26.5555C19.0569 26.3929 18.8834 26.0925 18.8834 25.7674V21.5757C18.8834 21.2506 19.0569 20.9501 19.3384 20.7876L21.0982 19.7713C21.5673 19.5005 21.5671 18.8234 21.0979 18.5528Z" fill="#FFD600"/>
<path d="M21.0982 19.7713L21.0898 19.7568L21.0982 19.7713ZM19.3384 20.7876L19.33 20.7731L19.3384 20.7876ZM19.3384 26.5555L19.33 26.57L19.3384 26.5555ZM23.8792 28.655L23.8875 28.6696L23.8792 28.655ZM27.9745 25.7786L27.9912 25.7786L27.9745 25.7786ZM27.5169 26.5705L27.5252 26.585L27.5169 26.5705ZM27.511 20.8039L27.5026 20.8184L27.511 20.8039ZM27.9643 21.5889L27.9475 21.5889L27.9643 21.5889ZM26.4642 18.5699L26.4558 18.5844L26.4642 18.5699ZM25.7617 18.5678L25.7701 18.5823L25.7617 18.5678ZM29.3692 20.7775L29.3859 20.7775L29.3692 20.7775ZM28.9158 19.9926L28.9074 20.007L28.9158 19.9926ZM28.9257 27.3847L28.9174 27.3701L28.9257 27.3847ZM29.3834 26.5928L29.3666 26.5928L29.3834 26.5928ZM22.9689 30.2766L22.9772 30.262L22.9689 30.2766ZM23.8765 30.2781L23.8681 30.2635L23.8765 30.2781ZM20.3947 18.553L20.3863 18.5385L20.3947 18.553ZM17.9399 19.9899L20.4031 18.5675L20.3863 18.5385L17.9232 19.9609L17.9399 19.9899ZM17.4933 26.5795V20.7635H17.4598V26.5795H17.4933ZM22.9772 30.262L17.9399 27.3532L17.9232 27.3822L22.9605 30.2911L22.9772 30.262ZM28.9174 27.3701L23.8681 30.2635L23.8848 30.2926L28.9341 27.3992L28.9174 27.3701ZM29.3524 20.7776L29.3666 26.5928L29.4001 26.5928L29.3859 20.7775L29.3524 20.7776ZM26.4558 18.5844L28.9074 20.007L28.9242 19.9781L26.4726 18.5554L26.4558 18.5844ZM25.7497 19.8012L27.5026 20.8184L27.5194 20.7894L25.7665 19.7722L25.7497 19.8012ZM27.9475 21.5889L27.9578 25.7787L27.9912 25.7786L27.981 21.5888L27.9475 21.5889ZM27.5086 26.556L23.8708 28.6405L23.8875 28.6696L27.5252 26.585L27.5086 26.556ZM22.9799 28.639L19.3468 26.541L19.33 26.57L22.9632 28.668L22.9799 28.639ZM18.9002 25.7674V21.5757H18.8667V25.7674H18.9002ZM19.3468 20.8021L21.1066 19.7858L21.0898 19.7568L19.33 20.7731L19.3468 20.8021ZM21.1066 19.7858C21.5868 19.5085 21.5866 18.8153 21.1062 18.5383L21.0895 18.5673C21.5475 18.8315 21.5477 19.4924 21.0898 19.7568L21.1066 19.7858ZM18.9002 21.5757C18.9002 21.2566 19.0704 20.9617 19.3468 20.8021L19.33 20.7731C19.0433 20.9386 18.8667 21.2446 18.8667 21.5757H18.9002ZM19.3468 26.541C19.0704 26.3814 18.9002 26.0865 18.9002 25.7674H18.8667C18.8667 26.0985 19.0433 26.4044 19.33 26.57L19.3468 26.541ZM23.8708 28.6405C23.5948 28.7987 23.2555 28.7981 22.9799 28.639L22.9632 28.668C23.249 28.8331 23.6011 28.8337 23.8875 28.6696L23.8708 28.6405ZM27.9578 25.7787C27.9585 26.0997 27.7871 26.3964 27.5086 26.556L27.5252 26.585C27.8142 26.4195 27.9921 26.1116 27.9912 25.7786L27.9578 25.7787ZM27.5026 20.8184C27.7773 20.9778 27.9468 21.2712 27.9475 21.5889L27.981 21.5888C27.9802 21.2592 27.8044 20.9548 27.5194 20.7894L27.5026 20.8184ZM25.7534 18.5533C25.2718 18.8289 25.2697 19.5227 25.7497 19.8012L25.7665 19.7722C25.3088 19.5067 25.3108 18.8451 25.7701 18.5823L25.7534 18.5533ZM26.4726 18.5554C26.2504 18.4265 25.9764 18.4257 25.7534 18.5533L25.7701 18.5823C25.9826 18.4607 26.2439 18.4615 26.4558 18.5844L26.4726 18.5554ZM29.3859 20.7775C29.3851 20.4479 29.2093 20.1435 28.9242 19.9781L28.9074 20.007C29.1822 20.1665 29.3516 20.4599 29.3524 20.7776L29.3859 20.7775ZM28.9341 27.3992C29.223 27.2336 29.4009 26.9258 29.4001 26.5928L29.3666 26.5928C29.3674 26.9138 29.1959 27.2105 28.9174 27.3701L28.9341 27.3992ZM22.9605 30.2911C23.2463 30.4561 23.5984 30.4567 23.8848 30.2926L23.8681 30.2635C23.5921 30.4217 23.2527 30.4212 22.9772 30.262L22.9605 30.2911ZM17.4598 26.5795C17.4598 26.9107 17.6364 27.2166 17.9232 27.3822L17.9399 27.3532C17.6636 27.1936 17.4933 26.8987 17.4933 26.5795H17.4598ZM20.4031 18.5675C20.6154 18.4449 20.8771 18.4448 21.0895 18.5673L21.1062 18.5383C20.8834 18.4098 20.609 18.4099 20.3863 18.5385L20.4031 18.5675ZM17.9232 19.9609C17.6364 20.1265 17.4598 20.4324 17.4598 20.7635H17.4933C17.4933 20.4444 17.6636 20.1495 17.9399 19.9899L17.9232 19.9609Z" fill="#FFD600"/>
</g>
</g>
<g filter="url(#filter1_d_1_777)">
<path d="M26.2984 17.5256L23.8907 18.9092C23.609 19.071 23.2624 19.0705 22.9812 18.9076L20.578 17.516C20.297 17.3533 20.124 17.0531 20.124 16.7284V13.9423C20.124 13.6176 20.297 13.3175 20.578 13.1548L22.9783 11.7648C23.261 11.601 23.6098 11.6014 23.8922 11.7657L26.296 13.1645C26.5753 13.3271 26.7475 13.6257 26.7483 13.9489L26.7551 16.7343C26.7559 17.0609 26.5816 17.3628 26.2984 17.5256Z" fill="#FFD600"/>
<path d="M26.2984 17.5256L23.8907 18.9092C23.609 19.071 23.2624 19.0705 22.9812 18.9076L20.578 17.516C20.297 17.3533 20.124 17.0531 20.124 16.7284V13.9423C20.124 13.6176 20.297 13.3175 20.578 13.1548L22.9783 11.7648C23.261 11.601 23.6098 11.6014 23.8922 11.7657L26.296 13.1645C26.5753 13.3271 26.7475 13.6257 26.7483 13.9489L26.7551 16.7343C26.7559 17.0609 26.5816 17.3628 26.2984 17.5256Z" stroke="#FFD600" stroke-width="0.0334967"/>
</g>
<g filter="url(#filter2_d_1_777)">
<path d="M11.7168 23.8242L18.1817 23.8242" stroke="#FFD600" stroke-width="1.40686" stroke-linecap="round"/>
</g>
<g filter="url(#filter3_d_1_777)">
<path d="M28.833 23.8242L35.2979 23.8242" stroke="#FFD600" stroke-width="1.40686" stroke-linecap="round"/>
</g>
<g filter="url(#filter4_d_1_777)">
<path d="M13.2217 29.7344L18.3775 26.7398" stroke="#FFD600" stroke-width="1.40686" stroke-linecap="round"/>
</g>
<g filter="url(#filter5_d_1_777)">
<path d="M33.6201 29.7344L28.4643 26.7398" stroke="#FFD600" stroke-width="1.40686" stroke-linecap="round"/>
</g>
<g filter="url(#filter6_d_1_777)">
<path d="M13.0225 17.9648L18.1783 20.9595" stroke="#FFD600" stroke-width="1.40686" stroke-linecap="round"/>
</g>
<g filter="url(#filter7_d_1_777)">
<path d="M33.8271 17.9648L28.6713 20.9595" stroke="#FFD600" stroke-width="1.40686" stroke-linecap="round"/>
</g>
<defs>
<filter id="filter0_d_1_777" x="6.45972" y="7.44189" width="33.9404" height="33.9734" filterUnits="userSpaceOnUse" color-interpolation-filters="sRGB">
<feFlood flood-opacity="0" result="BackgroundImageFix"/>
<feColorMatrix in="SourceAlpha" type="matrix" values="0 0 0 0 0 0 0 0 0 0 0 0 0 0 0 0 0 0 127 0" result="hardAlpha"/>
<feOffset/>
<feGaussianBlur stdDeviation="5.5"/>
<feComposite in2="hardAlpha" operator="out"/>
<feColorMatrix type="matrix" values="0 0 0 0 1 0 0 0 0 0.839216 0 0 0 0 0 0 0 0 0.61 0"/>
<feBlend mode="normal" in2="BackgroundImageFix" result="effect1_dropShadow_1_777"/>
<feBlend mode="normal" in="SourceGraphic" in2="effect1_dropShadow_1_777" result="shape"/>
</filter>
<filter id="filter1_d_1_777" x="9.10718" y="0.625488" width="28.6646" height="29.4214" filterUnits="userSpaceOnUse" color-interpolation-filters="sRGB">
<feFlood flood-opacity="0" result="BackgroundImageFix"/>
<feColorMatrix in="SourceAlpha" type="matrix" values="0 0 0 0 0 0 0 0 0 0 0 0 0 0 0 0 0 0 127 0" result="hardAlpha"/>
<feOffset/>
<feGaussianBlur stdDeviation="5.5"/>
<feComposite in2="hardAlpha" operator="out"/>
<feColorMatrix type="matrix" values="0 0 0 0 1 0 0 0 0 0.839216 0 0 0 0 0 0 0 0 0.61 0"/>
<feBlend mode="normal" in2="BackgroundImageFix" result="effect1_dropShadow_1_777"/>
<feBlend mode="normal" in="SourceGraphic" in2="effect1_dropShadow_1_777" result="shape"/>
</filter>
<filter id="filter2_d_1_777" x="0.0134277" y="12.1208" width="29.8716" height="23.4067" filterUnits="userSpaceOnUse" color-interpolation-filters="sRGB">
<feFlood flood-opacity="0" result="BackgroundImageFix"/>
<feColorMatrix in="SourceAlpha" type="matrix" values="0 0 0 0 0 0 0 0 0 0 0 0 0 0 0 0 0 0 127 0" result="hardAlpha"/>
<feOffset/>
<feGaussianBlur stdDeviation="5.5"/>
<feComposite in2="hardAlpha" operator="out"/>
<feColorMatrix type="matrix" values="0 0 0 0 1 0 0 0 0 0.839216 0 0 0 0 0 0 0 0 0.61 0"/>
<feBlend mode="normal" in2="BackgroundImageFix" result="effect1_dropShadow_1_777"/>
<feBlend mode="normal" in="SourceGraphic" in2="effect1_dropShadow_1_777" result="shape"/>
</filter>
<filter id="filter3_d_1_777" x="17.1296" y="12.1208" width="29.8716" height="23.4067" filterUnits="userSpaceOnUse" color-interpolation-filters="sRGB">
<feFlood flood-opacity="0" result="BackgroundImageFix"/>
<feColorMatrix in="SourceAlpha" type="matrix" values="0 0 0 0 0 0 0 0 0 0 0 0 0 0 0 0 0 0 127 0" result="hardAlpha"/>
<feOffset/>
<feGaussianBlur stdDeviation="5.5"/>
<feComposite in2="hardAlpha" operator="out"/>
<feColorMatrix type="matrix" values="0 0 0 0 1 0 0 0 0 0.839216 0 0 0 0 0 0 0 0 0.61 0"/>
<feBlend mode="normal" in2="BackgroundImageFix" result="effect1_dropShadow_1_777"/>
<feBlend mode="normal" in="SourceGraphic" in2="effect1_dropShadow_1_777" result="shape"/>
</filter>
<filter id="filter4_d_1_777" x="1.51807" y="15.0361" width="28.563" height="26.4019" filterUnits="userSpaceOnUse" color-interpolation-filters="sRGB">
<feFlood flood-opacity="0" result="BackgroundImageFix"/>
<feColorMatrix in="SourceAlpha" type="matrix" values="0 0 0 0 0 0 0 0 0 0 0 0 0 0 0 0 0 0 127 0" result="hardAlpha"/>
<feOffset/>
<feGaussianBlur stdDeviation="5.5"/>
<feComposite in2="hardAlpha" operator="out"/>
<feColorMatrix type="matrix" values="0 0 0 0 1 0 0 0 0 0.839216 0 0 0 0 0 0 0 0 0.61 0"/>
<feBlend mode="normal" in2="BackgroundImageFix" result="effect1_dropShadow_1_777"/>
<feBlend mode="normal" in="SourceGraphic" in2="effect1_dropShadow_1_777" result="shape"/>
</filter>
<filter id="filter5_d_1_777" x="16.7607" y="15.0361" width="28.563" height="26.4019" filterUnits="userSpaceOnUse" color-interpolation-filters="sRGB">
<feFlood flood-opacity="0" result="BackgroundImageFix"/>
<feColorMatrix in="SourceAlpha" type="matrix" values="0 0 0 0 0 0 0 0 0 0 0 0 0 0 0 0 0 0 127 0" result="hardAlpha"/>
<feOffset/>
<feGaussianBlur stdDeviation="5.5"/>
<feComposite in2="hardAlpha" operator="out"/>
<feColorMatrix type="matrix" values="0 0 0 0 1 0 0 0 0 0.839216 0 0 0 0 0 0 0 0 0.61 0"/>
<feBlend mode="normal" in2="BackgroundImageFix" result="effect1_dropShadow_1_777"/>
<feBlend mode="normal" in="SourceGraphic" in2="effect1_dropShadow_1_777" result="shape"/>
</filter>
<filter id="filter6_d_1_777" x="1.31885" y="6.26123" width="28.563" height="26.4019" filterUnits="userSpaceOnUse" color-interpolation-filters="sRGB">
<feFlood flood-opacity="0" result="BackgroundImageFix"/>
<feColorMatrix in="SourceAlpha" type="matrix" values="0 0 0 0 0 0 0 0 0 0 0 0 0 0 0 0 0 0 127 0" result="hardAlpha"/>
<feOffset/>
<feGaussianBlur stdDeviation="5.5"/>
<feComposite in2="hardAlpha" operator="out"/>
<feColorMatrix type="matrix" values="0 0 0 0 1 0 0 0 0 0.839216 0 0 0 0 0 0 0 0 0.61 0"/>
<feBlend mode="normal" in2="BackgroundImageFix" result="effect1_dropShadow_1_777"/>
<feBlend mode="normal" in="SourceGraphic" in2="effect1_dropShadow_1_777" result="shape"/>
</filter>
<filter id="filter7_d_1_777" x="16.9678" y="6.26123" width="28.563" height="26.4019" filterUnits="userSpaceOnUse" color-interpolation-filters="sRGB">
<feFlood flood-opacity="0" result="BackgroundImageFix"/>
<feColorMatrix in="SourceAlpha" type="matrix" values="0 0 0 0 0 0 0 0 0 0 0 0 0 0 0 0 0 0 127 0" result="hardAlpha"/>
<feOffset/>
<feGaussianBlur stdDeviation="5.5"/>
<feComposite in2="hardAlpha" operator="out"/>
<feColorMatrix type="matrix" values="0 0 0 0 1 0 0 0 0 0.839216 0 0 0 0 0 0 0 0 0.61 0"/>
<feBlend mode="normal" in2="BackgroundImageFix" result="effect1_dropShadow_1_777"/>
<feBlend mode="normal" in="SourceGraphic" in2="effect1_dropShadow_1_777" result="shape"/>
</filter>
</defs>
</svg>
